<svg width="18" height="15" viewBox="0 0 18 15" fill="none" xmlns="http://www.w3.org/2000/svg">
<path d="M18 1.98123C17.3229 2.27654 16.6068 2.47281 15.8737 2.56398C16.6463 2.10568 17.2238 1.37999 17.4971 0.524351C16.7738 0.953354 15.9824 1.25546 15.1571 1.4176C14.6511 0.877352 13.9944 0.501759 13.2722 0.339619C12.55 0.177479 11.7957 0.236287 11.1073 0.508403C10.419 0.780518 9.82836 1.25336 9.41223 1.8655C8.9961 2.47764 8.77368 3.20079 8.77387 3.94098C8.77387 4.23348 8.79862 4.51473 8.85938 4.78248C7.39134 4.7105 5.95503 4.32949 4.64434 3.66436C3.33365 2.99922 2.17811 2.06494 1.25325 0.922601C0.779422 1.73469 0.632935 2.69685 0.843619 3.61315C1.0543 4.52946 1.60631 5.33102 2.38725 5.8546C1.8031 5.83894 1.23128 5.68306 0.72 5.4001V5.4406C0.720979 6.29271 1.0155 7.11847 1.55398 7.77887C2.09247 8.43927 2.84203 8.89399 3.6765 9.06648C3.36081 9.14968 3.03546 9.19053 2.709 9.18798C2.47454 9.19215 2.24031 9.17102 2.01037 9.12498C2.24881 9.85738 2.70843 10.4979 3.32594 10.9582C3.94346 11.4186 4.68851 11.6762 5.4585 11.6956C4.15231 12.7171 2.54135 13.2713 0.883125 13.2695C0.5805 13.2695 0.29025 13.256 0 13.2189C1.68737 14.3062 3.65364 14.8814 5.661 14.8749C12.4515 14.8749 16.164 9.24985 16.164 4.3741C16.164 4.21098 16.1584 4.05348 16.1505 3.8971C16.8783 3.37621 17.5051 2.72697 18 1.98123V1.98123Z"/>
</svg>
