<svg width="27" height="27" viewBox="0 0 27 27" fill="none" xmlns="http://www.w3.org/2000/svg">
<path d="M0.375 3.29167V23.7083C0.375 25.3125 1.67292 26.625 3.29167 26.625H23.7083C25.3125 26.625 26.625 25.3125 26.625 23.7083V3.29167C26.625 1.6875 25.3125 0.375 23.7083 0.375H3.29167C1.67292 0.375 0.375 1.6875 0.375 3.29167ZM17.875 9.125C17.875 11.5458 15.9208 13.5 13.5 13.5C11.0792 13.5 9.125 11.5458 9.125 9.125C9.125 6.70417 11.0792 4.75 13.5 4.75C15.9208 4.75 17.875 6.70417 17.875 9.125ZM4.75 20.7917C4.75 17.875 10.5833 16.2708 13.5 16.2708C16.4167 16.2708 22.25 17.875 22.25 20.7917V22.25H4.75V20.7917Z" fill="#2962EF"/>
</svg>
