<svg width="121" height="30" viewBox="0 0 121 30" fill="none" xmlns="http://www.w3.org/2000/svg">
<path fill-rule="evenodd" clip-rule="evenodd" d="M14.5847 29.0453C22.6422 29.0453 29.1694 22.5492 29.1694 14.5227C29.1694 6.49617 22.6422 0 14.5847 0C6.5272 0 0 6.49617 0 14.5227C0 22.5492 6.5272 29.0453 14.5847 29.0453ZM14.5847 24.0483C20.4873 24.0483 25.2343 19.3011 25.2343 13.4608C25.2343 7.62051 20.4561 5.18444 14.5847 5.18444C8.68212 5.18444 3.93507 7.58928 3.93507 13.4608C3.90383 19.3323 8.68212 24.0483 14.5847 24.0483Z" fill="#232427"/>
<path fill-rule="evenodd" clip-rule="evenodd" d="M8.27585 15.1789C8.90047 15.1789 9.46262 14.929 9.89985 14.5542C10.1185 14.9602 10.3995 15.3974 10.6494 15.8348C11.2116 16.7717 11.8361 17.7399 12.3983 18.4582C12.6793 18.833 12.9917 19.1766 13.2728 19.4263C13.5226 19.645 13.9598 19.9573 14.4596 19.9573C14.9592 19.9573 15.3964 19.645 15.6463 19.4263C15.9586 19.1766 16.2709 18.833 16.552 18.4894C17.1453 17.7711 17.8012 16.8029 18.3946 15.866C18.6757 15.3974 18.9568 14.9602 19.2066 14.523C19.6438 14.929 20.2372 15.2101 20.8618 15.2101C22.1734 15.2101 23.2666 14.1482 23.2666 12.8364C23.2666 11.5248 22.2047 10.4629 20.8618 10.4629C19.8 10.4629 18.863 11.1812 18.582 12.1494C18.5196 12.2431 18.457 12.368 18.3946 12.493C18.0198 13.18 17.4889 14.0858 16.9268 14.9914C16.3646 15.8972 15.74 16.8029 15.209 17.4276C14.928 17.7399 14.7093 17.9897 14.522 18.1459C14.4908 18.1771 14.4596 18.1771 14.4596 18.2083C14.4283 18.2083 14.4283 18.1771 14.397 18.1459C14.2097 17.9897 13.9911 17.7711 13.7412 17.4276C13.2416 16.7717 12.6481 15.8972 12.1172 14.9914C11.5863 14.0858 11.0866 13.18 10.7118 12.493C10.6494 12.3992 10.6181 12.3056 10.5869 12.2431C10.3058 11.2124 9.36893 10.4629 8.27585 10.4629C6.96417 10.4629 5.87109 11.5248 5.87109 12.8364C5.87109 14.117 6.93294 15.1789 8.27585 15.1789Z" fill="#232427"/>
<path d="M43.022 19H44.758V9.382H43.022V19ZM50.6594 11.594C49.7074 11.594 48.8674 12.056 48.4194 12.728V11.762H46.7114V19H48.4194V14.422C48.5314 13.652 49.2734 13.05 50.1694 13.05C51.0654 13.05 51.6954 13.75 51.6954 14.73V19H53.3474V14.394C53.3474 12.756 52.2414 11.594 50.6594 11.594ZM60.7037 9.214V12.882C60.1297 12.07 59.2617 11.594 58.1977 11.594C56.2797 11.594 54.8797 13.162 54.8797 15.374C54.8797 17.6 56.2797 19.168 58.1977 19.168C59.2617 19.168 60.1297 18.692 60.7037 17.88V19H62.4117V9.214H60.7037ZM58.6597 17.712C57.4417 17.712 56.5737 16.732 56.5737 15.374C56.5737 14.016 57.4417 13.05 58.6597 13.05C59.8637 13.05 60.7037 14.016 60.7037 15.374C60.7037 16.732 59.8637 17.712 58.6597 17.712ZM67.7085 17.656C66.6725 17.656 65.9165 16.956 65.7065 15.962H71.1665C71.1665 13.288 69.8645 11.594 67.6245 11.594C65.5665 11.594 63.9425 13.19 63.9425 15.36C63.9425 17.586 65.6505 19.168 67.7225 19.168C68.7725 19.168 70.0325 18.72 70.6625 18.048L69.5845 16.928C69.1785 17.348 68.3805 17.656 67.7085 17.656ZM67.6945 13.106C68.7165 13.106 69.3325 13.75 69.5285 14.66H65.7205C65.9725 13.708 66.7425 13.106 67.6945 13.106ZM79.283 19L76.567 15.29L79.157 11.762H77.295L75.643 14.016L73.991 11.762H72.115L74.705 15.304L71.989 19H73.851L75.629 16.578L77.393 19H79.283ZM89.2055 19.168C90.6195 19.168 91.9075 18.566 92.8315 17.6L91.5995 16.452C90.9975 17.138 90.1435 17.572 89.2055 17.572C87.4275 17.572 85.9295 16.032 85.9295 14.184C85.9295 12.35 87.4275 10.81 89.2055 10.81C90.1295 10.81 90.9975 11.244 91.5855 11.93L92.8315 10.768C91.9075 9.816 90.6195 9.214 89.2055 9.214C86.4615 9.214 84.1515 11.482 84.1515 14.184C84.1515 16.886 86.4615 19.168 89.2055 19.168ZM97.6255 19.168C99.7255 19.168 101.504 17.432 101.504 15.374C101.504 13.316 99.7255 11.594 97.6255 11.594C95.5255 11.594 93.7475 13.316 93.7475 15.374C93.7475 17.432 95.5255 19.168 97.6255 19.168ZM97.6255 17.712C96.4215 17.712 95.4135 16.648 95.4135 15.374C95.4135 14.114 96.4215 13.05 97.6255 13.05C98.8155 13.05 99.8235 14.114 99.8235 15.374C99.8235 16.648 98.8155 17.712 97.6255 17.712ZM106.485 19.168C108.585 19.168 110.363 17.432 110.363 15.374C110.363 13.316 108.585 11.594 106.485 11.594C104.385 11.594 102.607 13.316 102.607 15.374C102.607 17.432 104.385 19.168 106.485 19.168ZM106.485 17.712C105.281 17.712 104.273 16.648 104.273 15.374C104.273 14.114 105.281 13.05 106.485 13.05C107.675 13.05 108.683 14.114 108.683 15.374C108.683 16.648 107.675 17.712 106.485 17.712ZM116.114 11.594C115.036 11.594 114.168 12.084 113.594 12.91V11.762H111.886V21.408H113.594V17.852C114.168 18.678 115.036 19.168 116.114 19.168C118.032 19.168 119.432 17.6 119.432 15.374C119.432 13.162 118.032 11.594 116.114 11.594ZM115.652 17.712C114.448 17.712 113.608 16.732 113.608 15.374C113.608 14.016 114.448 13.05 115.652 13.05C116.87 13.05 117.738 14.016 117.738 15.374C117.738 16.732 116.87 17.712 115.652 17.712Z" fill="#232427"/>
</svg>
