<svg width="224" height="17" viewBox="0 0 224 17" fill="none" xmlns="http://www.w3.org/2000/svg">
<path d="M21.5733 7.69433C20.6199 6.76264 19.4742 6.29701 18.1357 6.29701H4.86727C4.62083 6.29701 4.40943 6.21141 4.2326 6.03977C4.05577 5.86856 3.96758 5.65975 3.96758 5.41331V4.33722C3.96758 4.10203 4.05577 3.8984 4.2326 3.72676C4.40943 3.55555 4.62083 3.46952 4.86727 3.46952H21.9749C22.0178 3.46952 22.0523 3.45611 22.0791 3.42931C22.1059 3.40293 22.1193 3.37311 22.1193 3.34112V0.128404C22.1193 0.0856031 22.1059 0.05361 22.0791 0.031993C22.0523 0.0108085 22.0173 0 21.9749 0H4.86727C3.51794 0 2.36922 0.466061 1.42153 1.39775C0.473843 2.32944 0 3.45352 0 4.77086V4.97967C0 6.30782 0.473843 7.43752 1.42153 8.36921C2.36922 9.3009 3.51794 9.76653 4.86727 9.76653H18.1357C18.3714 9.76653 18.5776 9.84953 18.754 10.0156C18.9308 10.1816 19.0191 10.3878 19.0191 10.6342V11.7103C19.0191 11.9567 18.9308 12.163 18.754 12.329C18.5772 12.495 18.3709 12.578 18.1357 12.578H1.01211C0.980113 12.578 0.950281 12.5915 0.923909 12.6183C0.897103 12.645 0.8837 12.6801 0.8837 12.7229V15.9356C0.8837 15.9676 0.897103 15.9974 0.923909 16.0238C0.950713 16.0506 0.980113 16.0639 1.01211 16.0639H18.1357C19.4742 16.0639 20.6199 15.5958 21.5733 14.6585C22.5262 13.7215 23.003 12.5944 23.003 11.2772V11.0678C23.0026 9.75053 22.5262 8.62602 21.5733 7.69433Z" fill="#232427"/>
<path d="M50.3794 0H46.6686C46.6366 0 46.6068 0.0108085 46.5804 0.031993C46.5537 0.05361 46.5403 0.0856031 46.5403 0.128404V4.20838C46.5403 4.5616 46.3578 4.82966 45.9941 5.01167L38.589 8.07955L31.184 5.01167C30.8199 4.82966 30.6379 4.56204 30.6379 4.20838V0.128404C30.6379 0.0856031 30.6271 0.05361 30.606 0.031993C30.584 0.0108085 30.5519 0 30.5092 0H26.7984C26.7664 0 26.7365 0.0108085 26.7102 0.031993C26.6833 0.05361 26.6699 0.0856031 26.6699 0.128404V4.80285C26.6699 5.49935 26.8628 6.13618 27.2485 6.71421C27.634 7.29269 28.1585 7.7207 28.8225 7.99913L36.5973 11.2598V15.9187C36.5973 15.9615 36.6107 15.9966 36.6376 16.0233C36.6643 16.0501 36.699 16.0635 36.7417 16.0635H40.4525C40.4844 16.0635 40.5139 16.0501 40.5406 16.0233C40.5675 15.9966 40.5809 15.9619 40.5809 15.9187V11.2603L48.3557 8.01555C49.0193 7.72632 49.5446 7.29528 49.9297 6.72244C50.3154 6.14958 50.5079 5.51534 50.5079 4.81884V0.128404C50.5079 0.0856031 50.4944 0.05361 50.4676 0.031993C50.4408 0.0108085 50.4114 0 50.3794 0Z" fill="#232427"/>
<path d="M77.9406 0H74.2299C74.1871 0 74.1546 0.0134025 74.1334 0.0402075C74.1118 0.0670125 74.1014 0.0964116 74.1014 0.128404V12.5936H72.5433C72.254 12.5936 72.0076 12.4651 71.8044 12.2079L64.6082 1.68655C63.8368 0.605274 62.7711 0.0428015 61.4114 0H55.2112C55.1685 0 55.1335 0.0134025 55.1067 0.0402075C55.0798 0.0670125 55.0664 0.0964116 55.0664 0.128404V15.9347C55.0664 15.9667 55.0798 15.9966 55.1067 16.0229C55.1335 16.0497 55.1681 16.0631 55.2112 16.0631H58.922C58.954 16.0631 58.9834 16.0497 59.0102 16.0229C59.0371 15.9966 59.0505 15.9667 59.0505 15.9347V3.46952H60.6086C60.8978 3.46952 61.1438 3.60354 61.3475 3.87117L68.5437 14.3925C69.3151 15.4743 70.3803 16.0311 71.7404 16.0631H77.9411C77.9838 16.0631 78.0159 16.0497 78.0374 16.0229C78.0586 15.9966 78.0694 15.9667 78.0694 15.9347V0.128404C78.0694 0.0964116 78.0586 0.0670125 78.0374 0.0402075C78.0153 0.0134025 77.9834 0 77.9406 0Z" fill="#232427"/>
<path d="M104.762 0H82.0326C81.9899 0 81.9574 0.0134025 81.9363 0.0402075C81.9147 0.0670125 81.9043 0.0964116 81.9043 0.128404V3.34112C81.9043 3.37311 81.9147 3.40293 81.9363 3.42931C81.9574 3.45611 81.9899 3.46952 82.0326 3.46952H91.4136V15.9347C91.4136 15.9667 91.424 15.9966 91.4455 16.0229C91.4668 16.0497 91.4992 16.0631 91.542 16.0631H95.2528C95.2956 16.0631 95.3276 16.0497 95.3492 16.0229C95.3703 15.9966 95.3811 15.9667 95.3811 15.9347V3.46952H104.762C104.805 3.46952 104.84 3.45611 104.866 3.42931C104.893 3.40251 104.906 3.37311 104.906 3.34112V0.128404C104.906 0.0964116 104.893 0.0670125 104.866 0.0402075C104.84 0.0134025 104.805 0 104.762 0Z" fill="#232427"/>
<path d="M132.323 0H128.612C128.58 0 128.551 0.0134025 128.524 0.0402075C128.497 0.0670125 128.485 0.0964116 128.485 0.128404V6.29658H113.449V0.128404C113.449 0.0964116 113.435 0.0670125 113.409 0.0402075C113.382 0.0138348 113.347 0 113.305 0H109.593C109.562 0 109.532 0.0134025 109.505 0.0402075C109.479 0.0670125 109.465 0.0964116 109.465 0.128404V15.9347C109.465 15.9667 109.479 15.9966 109.505 16.0229C109.532 16.0497 109.562 16.0631 109.593 16.0631H113.305C113.347 16.0631 113.382 16.0497 113.409 16.0229C113.435 15.9962 113.449 15.9667 113.449 15.9347V9.76653H128.485V15.9347C128.485 15.9667 128.497 15.9966 128.524 16.0229C128.552 16.0497 128.58 16.0631 128.612 16.0631H132.323C132.366 16.0631 132.401 16.0497 132.428 16.0229C132.454 15.9962 132.468 15.9667 132.468 15.9347V0.128404C132.468 0.0964116 132.454 0.0670125 132.428 0.0402075C132.401 0.0134025 132.366 0 132.323 0Z" fill="#232427"/>
<path d="M159.789 0H141.781C140.443 0 139.296 0.465629 138.343 1.39732C137.39 2.32901 136.914 3.45352 136.914 4.77086V11.2762C136.914 12.6044 137.39 13.7341 138.343 14.6658C139.296 15.5975 140.443 16.0635 141.781 16.0635H159.789C159.821 16.0635 159.849 16.0501 159.877 16.0233C159.902 15.9966 159.916 15.9671 159.916 15.9352V12.7225C159.916 12.6797 159.903 12.6477 159.877 12.626C159.849 12.6049 159.821 12.594 159.789 12.594H141.781C141.535 12.594 141.326 12.5084 141.154 12.3372C140.983 12.166 140.897 11.9624 140.897 11.7267V9.76653H159.777C159.819 9.76653 159.851 9.75312 159.873 9.72633C159.894 9.69952 159.904 9.67012 159.904 9.63813V6.42542C159.904 6.38262 159.894 6.35063 159.873 6.329C159.851 6.30782 159.819 6.29701 159.777 6.29701H140.897V4.33722C140.897 4.1016 140.983 3.8984 141.154 3.72676C141.326 3.55555 141.535 3.46952 141.781 3.46952H159.789C159.821 3.46952 159.849 3.45611 159.877 3.42931C159.902 3.40293 159.916 3.37311 159.916 3.34112V0.128404C159.916 0.0964115 159.903 0.0670125 159.877 0.0402074C159.849 0.0138348 159.821 0 159.789 0Z" fill="#232427"/>
<path d="M187.22 0H164.49C164.447 0 164.414 0.0134025 164.393 0.0402075C164.372 0.0670125 164.361 0.0964116 164.361 0.128404V3.34112C164.361 3.37311 164.372 3.40293 164.393 3.42931C164.414 3.45611 164.447 3.46952 164.49 3.46952H173.871V15.9347C173.871 15.9667 173.881 15.9966 173.903 16.0229C173.925 16.0497 173.957 16.0631 173.999 16.0631H177.71C177.753 16.0631 177.785 16.0497 177.806 16.0229C177.827 15.9966 177.838 15.9667 177.838 15.9347V3.46952H187.219C187.262 3.46952 187.296 3.45611 187.323 3.42931C187.351 3.40251 187.363 3.37311 187.363 3.34112V0.128404C187.363 0.0964116 187.351 0.0670125 187.323 0.0402075C187.298 0.0134025 187.262 0 187.22 0Z" fill="#232427"/>
<path d="M195.859 0.031993C195.837 0.0108085 195.805 0 195.763 0H192.052C192.009 0 191.977 0.0108085 191.956 0.031993C191.934 0.05361 191.924 0.0856031 191.924 0.128404V15.9347C191.924 15.9667 191.934 15.9966 191.956 16.0229C191.977 16.0497 192.009 16.0631 192.052 16.0631H195.763C195.805 16.0631 195.837 16.0497 195.859 16.0229C195.881 15.9962 195.891 15.9667 195.891 15.9347V0.128404C195.891 0.0860354 195.881 0.05361 195.859 0.031993Z" fill="#232427"/>
<path d="M206.103 3.90389C205.942 3.72188 205.744 3.63065 205.509 3.63065H200.689C200.647 3.63065 200.612 3.61725 200.585 3.59045C200.559 3.56407 200.545 3.53424 200.545 3.50225V0.289538C200.545 0.257545 200.559 0.228146 200.585 0.201341C200.612 0.174968 200.647 0.161133 200.689 0.161133H205.782C207.067 0.161133 208.175 0.680805 209.107 1.71928L210.343 3.21301L207.935 6.12049L206.103 3.90389ZM215.001 1.70329C215.933 0.675184 217.047 0.161133 218.343 0.161133H223.418C223.462 0.161133 223.494 0.171942 223.515 0.193126C223.536 0.214743 223.547 0.246736 223.547 0.289538V3.50225C223.547 3.53424 223.536 3.56407 223.515 3.59045C223.494 3.61725 223.462 3.63065 223.418 3.63065H218.6C218.364 3.63065 218.166 3.72188 218.006 3.90389L214.455 8.1767L218.022 12.4814C218.182 12.6531 218.375 12.7388 218.6 12.7388H223.418C223.462 12.7388 223.494 12.7522 223.515 12.7789C223.536 12.8057 223.547 12.8408 223.547 12.8832V16.0959C223.547 16.1278 223.536 16.1577 223.515 16.184C223.494 16.2108 223.462 16.2242 223.418 16.2242H218.343C217.048 16.2242 215.939 15.705 215.018 14.6661L212.062 11.1002L209.107 14.6661C208.175 15.705 207.061 16.2242 205.766 16.2242H200.689C200.647 16.2242 200.614 16.2108 200.593 16.184C200.571 16.1573 200.561 16.1226 200.561 16.0794V12.8667C200.561 12.8347 200.571 12.8053 200.593 12.7785C200.614 12.7517 200.647 12.7383 200.689 12.7383H205.509C205.733 12.7383 205.932 12.6475 206.103 12.4651L209.589 8.25668L215.001 1.70329Z" fill="#232427"/>
</svg>
