<svg width="162" height="30" viewBox="0 0 162 30" fill="none" xmlns="http://www.w3.org/2000/svg">
<path d="M14.9992 29.5499C23.035 29.5499 29.5492 23.0357 29.5492 15C29.5492 6.96421 23.035 0.449951 14.9992 0.449951C6.96348 0.449951 0.449219 6.96421 0.449219 15C0.449219 23.0357 6.96348 29.5499 14.9992 29.5499Z" fill="#232427"/>
<path d="M21.3663 20.7976L16.4463 8.90255C16.1688 8.28755 15.7563 7.98755 15.2126 7.98755H14.7776C14.2338 7.98755 13.8213 8.28755 13.5438 8.90255L11.4026 14.0851H9.78258C9.29883 14.0888 8.90508 14.4788 8.90133 14.9663V14.9776C8.90508 15.4613 9.29883 15.8551 9.78258 15.8588H10.6526L8.60883 20.7976C8.57133 20.9063 8.54883 21.0188 8.54883 21.1351C8.54883 21.4126 8.63508 21.6301 8.78883 21.7988C8.94258 21.9676 9.16383 22.0501 9.44133 22.0501C9.62508 22.0463 9.80133 21.9901 9.94758 21.8813C10.1051 21.7726 10.2138 21.6151 10.3001 21.4351L12.5501 15.8551H14.1101C14.5938 15.8513 14.9876 15.4613 14.9913 14.9738V14.9513C14.9876 14.4676 14.5938 14.0738 14.1101 14.0701H13.2776L14.9951 9.7913L19.6751 21.4313C19.7613 21.6113 19.8701 21.7688 20.0276 21.8776C20.1738 21.9863 20.3538 22.0426 20.5338 22.0463C20.8113 22.0463 21.0288 21.9638 21.1863 21.7951C21.3438 21.6263 21.4263 21.4088 21.4263 21.1313C21.4301 21.0188 21.4113 20.9026 21.3663 20.7976Z" fill="#FAFAFA"/>
<path d="M50.316 19H52.248L48.23 9.382H46.284L42.266 19H44.212L44.94 17.264H49.588L50.316 19ZM45.57 15.752L47.264 11.706L48.958 15.752H45.57ZM56.6153 11.594C55.7053 11.594 54.7533 11.846 53.7313 12.35L54.3193 13.54C54.9353 13.232 55.5933 12.994 56.2793 12.994C57.5953 12.994 58.0573 13.806 58.0573 14.646V14.842C57.3993 14.59 56.6853 14.45 56.0273 14.45C54.4033 14.45 53.0733 15.43 53.0733 16.858C53.0733 18.258 54.2353 19.168 55.7753 19.168C56.6153 19.168 57.5253 18.804 58.0573 18.132V19H59.7233V14.646C59.7233 12.812 58.5333 11.594 56.6153 11.594ZM56.1533 17.922C55.3413 17.922 54.7393 17.488 54.7393 16.802C54.7393 16.116 55.4253 15.64 56.2793 15.64C56.9233 15.64 57.5253 15.738 58.0573 15.92V16.732C57.8613 17.502 56.9793 17.922 56.1533 17.922ZM63.9948 19H65.6048L68.6708 11.762H66.8508L64.7928 17.026L62.6928 11.762H60.8868L63.9948 19ZM72.7671 17.656C71.7311 17.656 70.9751 16.956 70.7651 15.962H76.2251C76.2251 13.288 74.9231 11.594 72.6831 11.594C70.6251 11.594 69.0011 13.19 69.0011 15.36C69.0011 17.586 70.7091 19.168 72.7811 19.168C73.8311 19.168 75.0911 18.72 75.7211 18.048L74.6431 16.928C74.2371 17.348 73.4391 17.656 72.7671 17.656ZM72.7531 13.106C73.7751 13.106 74.3911 13.75 74.5871 14.66H70.7791C71.0311 13.708 71.8011 13.106 72.7531 13.106ZM86.1644 15.136H88.5584V16.886C87.9564 17.32 87.1724 17.572 86.4444 17.572C84.6524 17.572 83.1404 16.032 83.1404 14.184C83.1404 12.35 84.6524 10.81 86.4444 10.81C87.3824 10.81 88.4184 11.23 89.0204 11.93L90.2664 10.768C89.3424 9.802 87.8444 9.214 86.4444 9.214C83.6864 9.214 81.3624 11.482 81.3624 14.184C81.3624 16.886 83.6864 19.168 86.4444 19.168C87.8444 19.168 89.3424 18.566 90.2664 17.6V13.708H86.1644V15.136ZM93.8247 13.162V11.762H92.1167V19H93.8247V15.346C93.8247 13.974 94.8607 13.05 96.4147 13.05V11.594C95.2247 11.594 94.2867 12.196 93.8247 13.162ZM100.83 11.594C99.9202 11.594 98.9682 11.846 97.9462 12.35L98.5342 13.54C99.1502 13.232 99.8082 12.994 100.494 12.994C101.81 12.994 102.272 13.806 102.272 14.646V14.842C101.614 14.59 100.9 14.45 100.242 14.45C98.6182 14.45 97.2882 15.43 97.2882 16.858C97.2882 18.258 98.4502 19.168 99.9902 19.168C100.83 19.168 101.74 18.804 102.272 18.132V19H103.938V14.646C103.938 12.812 102.748 11.594 100.83 11.594ZM100.368 17.922C99.5562 17.922 98.9542 17.488 98.9542 16.802C98.9542 16.116 99.6402 15.64 100.494 15.64C101.138 15.64 101.74 15.738 102.272 15.92V16.732C102.076 17.502 101.194 17.922 100.368 17.922ZM109.736 11.594C108.784 11.594 107.944 12.056 107.496 12.728V11.762H105.788V19H107.496V14.422C107.608 13.652 108.35 13.05 109.246 13.05C110.142 13.05 110.772 13.75 110.772 14.73V19H112.424V14.394C112.424 12.756 111.318 11.594 109.736 11.594ZM117.89 17.446C117.736 17.6 117.47 17.712 117.176 17.712C116.77 17.712 116.462 17.362 116.462 16.872V13.176H118.1V11.762H116.462V9.774H114.796V11.762H113.746V13.176H114.796V17.082C114.796 18.3 115.636 19.168 116.84 19.168C117.386 19.168 117.974 18.944 118.38 18.594L117.89 17.446ZM122.38 19.168C124.074 19.168 125.222 18.272 125.222 16.886C125.222 15.374 123.906 14.954 122.688 14.618C121.582 14.296 121.204 14.156 121.204 13.694C121.204 13.288 121.666 13.05 122.268 13.05C122.898 13.05 123.64 13.274 124.326 13.708L125.04 12.462C124.256 11.944 123.262 11.594 122.268 11.594C120.658 11.594 119.538 12.518 119.538 13.876C119.552 15.164 120.546 15.612 122.114 16.018C122.94 16.242 123.57 16.424 123.57 16.984C123.57 17.432 123.094 17.726 122.408 17.726C121.498 17.726 120.686 17.39 119.986 16.886L119.216 18.076C120.084 18.776 121.274 19.168 122.38 19.168ZM130.852 19H134.24C137.418 19 139.658 16.998 139.658 14.184C139.658 11.37 137.418 9.382 134.24 9.382H130.852V19ZM132.602 17.418V10.964H134.422C136.452 10.964 137.88 12.294 137.88 14.184C137.88 16.074 136.452 17.418 134.422 17.418H132.602ZM148.084 19H150.016L145.998 9.382H144.052L140.034 19H141.98L142.708 17.264H147.356L148.084 19ZM143.338 15.752L145.032 11.706L146.726 15.752H143.338ZM155.979 19.168C158.709 19.168 161.019 16.886 161.019 14.184C161.019 11.482 158.709 9.214 155.979 9.214C153.235 9.214 150.925 11.482 150.925 14.184C150.925 16.886 153.235 19.168 155.979 19.168ZM155.979 17.572C154.201 17.572 152.703 16.032 152.703 14.184C152.703 12.35 154.201 10.81 155.979 10.81C157.743 10.81 159.227 12.35 159.227 14.184C159.227 16.032 157.743 17.572 155.979 17.572Z" fill="#232427"/>
</svg>
