<svg width="35" height="35" viewBox="0 0 35 35" fill="none" xmlns="http://www.w3.org/2000/svg">
<path d="M17.5001 0.780518C8.26648 0.780518 0.78125 8.26575 0.78125 17.4994C0.78125 26.733 8.26648 34.2183 17.5001 34.2183C26.7337 34.2183 34.219 26.733 34.219 17.4994C34.219 8.26575 26.7337 0.780518 17.5001 0.780518ZM29.7366 18.4118H21.9785C21.7476 19.5709 21.0907 20.6014 20.1374 21.3001C19.1841 21.9988 18.0036 22.3148 16.8287 22.186C15.6539 22.0572 14.5699 21.4928 13.7907 20.6042C13.0114 19.7155 12.5934 18.5671 12.6191 17.3855C12.6449 16.2039 13.1124 15.0748 13.9296 14.2209C14.7468 13.367 15.8543 12.8503 17.0337 12.7728C18.213 12.6952 19.3786 13.0624 20.3006 13.8019C21.2226 14.5414 21.834 15.5995 22.0143 16.7676H29.7366C29.8467 16.7641 29.9564 16.7829 30.0591 16.8226C30.1618 16.8624 30.2555 16.9224 30.3346 16.9991C30.4137 17.0758 30.4766 17.1676 30.5196 17.269C30.5625 17.3705 30.5847 17.4795 30.5847 17.5897C30.5847 17.6998 30.5625 17.8089 30.5196 17.9103C30.4766 18.0118 30.4137 18.1036 30.3346 18.1802C30.2555 18.2569 30.1618 18.3169 30.0591 18.3567C29.9564 18.3965 29.8467 18.4152 29.7366 18.4118Z" fill="#3D8A74"/>
</svg>
