<svg width="25" height="31" viewBox="0 0 25 31" fill="none" xmlns="http://www.w3.org/2000/svg">
<path d="M15.4173 0.916748H3.75065C2.14648 0.916748 0.848568 2.22925 0.848568 3.83342L0.833984 27.1668C0.833984 28.7709 2.1319 30.0834 3.73607 30.0834H21.2506C22.8548 30.0834 24.1673 28.7709 24.1673 27.1668V9.66675L15.4173 0.916748ZM16.8756 15.5001H11.0423V16.9584H15.4173C16.2194 16.9584 16.8756 17.6147 16.8756 18.4167V22.7917C16.8756 23.5938 16.2194 24.2501 15.4173 24.2501H13.959V25.7084H11.0423V24.2501H8.12565V21.3334H13.959V19.8751H9.58398C8.7819 19.8751 8.12565 19.2188 8.12565 18.4167V14.0417C8.12565 13.2397 8.7819 12.5834 9.58398 12.5834H11.0423V11.1251H13.959V12.5834H16.8756V15.5001ZM13.959 9.66675V3.10425L20.5215 9.66675H13.959Z" fill="#EFB657"/>
</svg>
