<svg width="33" height="25" viewBox="0 0 33 25" fill="none" xmlns="http://www.w3.org/2000/svg">
<path fill-rule="evenodd" clip-rule="evenodd" d="M23.3105 14.1479C25.3085 15.5042 26.7085 17.3417 26.7085 19.7917V24.1667H32.5418V19.7917C32.5418 16.6125 27.3355 14.7313 23.3105 14.1479Z" fill="#6E4ABC"/>
<path d="M12.1263 12.4999C15.348 12.4999 17.9596 9.88825 17.9596 6.66658C17.9596 3.44492 15.348 0.833252 12.1263 0.833252C8.90464 0.833252 6.29297 3.44492 6.29297 6.66658C6.29297 9.88825 8.90464 12.4999 12.1263 12.4999Z" fill="#6E4ABC"/>
<path fill-rule="evenodd" clip-rule="evenodd" d="M20.8751 12.4999C24.098 12.4999 26.7085 9.8895 26.7085 6.66658C26.7085 3.44367 24.098 0.833252 20.8751 0.833252C20.1897 0.833252 19.548 0.979085 18.9355 1.18325C20.146 2.68533 20.8751 4.59575 20.8751 6.66658C20.8751 8.73742 20.146 10.6478 18.9355 12.1499C19.548 12.3541 20.1897 12.4999 20.8751 12.4999Z" fill="#6E4ABC"/>
<path fill-rule="evenodd" clip-rule="evenodd" d="M12.1257 13.9583C8.2319 13.9583 0.458984 15.9124 0.458984 19.7916V24.1666H23.7923V19.7916C23.7923 15.9124 16.0194 13.9583 12.1257 13.9583Z" fill="#6E4ABC"/>
</svg>
