<svg width="158" height="30" viewBox="0 0 158 30" fill="none" xmlns="http://www.w3.org/2000/svg">
<path d="M25.7938 0H3.92157C1.75575 0 0 1.75575 0 3.92157V25.7939C0 27.9597 1.75575 29.7155 3.92157 29.7155H25.7938C27.9597 29.7155 29.7154 27.9597 29.7154 25.7939V3.92157C29.7154 1.75575 27.9597 0 25.7938 0Z" fill="#232427"/>
<path fill-rule="evenodd" clip-rule="evenodd" d="M8.34569 20.0701C7.88399 19.786 7.60163 19.2799 7.60163 18.7363V15.7016C7.60163 15.5855 7.63254 15.4735 7.69025 15.3739C7.86956 15.0628 8.26736 14.957 8.57652 15.1396L15.3823 19.1326C15.7801 19.3669 16.0254 19.7942 16.0254 20.2588V23.4035C16.0254 23.5466 15.9861 23.6897 15.912 23.8121C15.6873 24.1813 15.2091 24.2975 14.8422 24.0715L8.34569 20.0701ZM18.4903 14.3077C18.8881 14.542 19.1334 14.9693 19.1334 15.434V21.8146C19.1334 22.0033 19.0324 22.1776 18.8695 22.2688L17.3794 23.1131C17.3608 23.1235 17.3403 23.1317 17.3196 23.138V19.595C17.3196 19.1366 17.0806 18.7114 16.689 18.475L10.7118 14.8761V10.8768C10.7118 10.7606 10.7427 10.6486 10.8005 10.549C10.9797 10.2379 11.3776 10.1321 11.6867 10.3147L18.4903 14.3077ZM21.4686 9.59485C21.8685 9.82715 22.1139 10.2587 22.1139 10.7233V20.0431C22.1139 20.234 22.0086 20.4103 21.8418 20.5016L20.4298 21.269V14.7806C20.4298 14.3222 20.1909 13.899 19.8012 13.6626L13.6922 9.97444V6.18056C13.6922 6.06442 13.7231 5.9524 13.7787 5.85284C13.9581 5.5417 14.3558 5.4359 14.665 5.61637L21.4686 9.59485Z" fill="#FAFAFA"/>
<path d="M47.684 19.168C49.098 19.168 50.386 18.566 51.31 17.6L50.078 16.452C49.476 17.138 48.622 17.572 47.684 17.572C45.906 17.572 44.408 16.032 44.408 14.184C44.408 12.35 45.906 10.81 47.684 10.81C48.608 10.81 49.476 11.244 50.064 11.93L51.31 10.768C50.386 9.816 49.098 9.214 47.684 9.214C44.94 9.214 42.63 11.482 42.63 14.184C42.63 16.886 44.94 19.168 47.684 19.168ZM56.104 19.168C58.204 19.168 59.982 17.432 59.982 15.374C59.982 13.316 58.204 11.594 56.104 11.594C54.004 11.594 52.226 13.316 52.226 15.374C52.226 17.432 54.004 19.168 56.104 19.168ZM56.104 17.712C54.9 17.712 53.892 16.648 53.892 15.374C53.892 14.114 54.9 13.05 56.104 13.05C57.294 13.05 58.302 14.114 58.302 15.374C58.302 16.648 57.294 17.712 56.104 17.712ZM69.8214 11.594C68.7434 11.594 67.8334 12.126 67.4834 12.966C67.0354 12.112 66.1954 11.594 65.1734 11.594C64.2634 11.594 63.5214 12.042 63.1574 12.742V11.762H61.4494V19H63.1574V14.562C63.1574 13.68 63.8154 13.05 64.7394 13.05C65.5794 13.05 66.1534 13.722 66.1534 14.674V19H67.8194V14.562C67.8194 13.68 68.4634 13.05 69.4014 13.05C70.2274 13.05 70.8014 13.722 70.8014 14.674V19H72.4674V14.394C72.4674 12.756 71.3334 11.594 69.8214 11.594ZM78.585 11.594C77.507 11.594 76.639 12.084 76.065 12.91V11.762H74.357V21.408H76.065V17.852C76.639 18.678 77.507 19.168 78.585 19.168C80.503 19.168 81.903 17.6 81.903 15.374C81.903 13.162 80.503 11.594 78.585 11.594ZM78.123 17.712C76.919 17.712 76.079 16.732 76.079 15.374C76.079 14.016 76.919 13.05 78.123 13.05C79.341 13.05 80.209 14.016 80.209 15.374C80.209 16.732 79.341 17.712 78.123 17.712ZM88.3478 11.762V16.34C88.2358 17.11 87.4938 17.712 86.5978 17.712C85.7018 17.712 85.0718 17.012 85.0718 16.032V11.762H83.4198V16.368C83.4198 18.006 84.5258 19.168 86.1078 19.168C87.0598 19.168 87.8998 18.706 88.3478 18.034V19H90.0558V11.762H88.3478ZM95.886 11.594C94.934 11.594 94.094 12.056 93.646 12.728V11.762H91.938V19H93.646V14.422C93.758 13.652 94.5 13.05 95.396 13.05C96.292 13.05 96.922 13.75 96.922 14.73V19H98.574V14.394C98.574 12.756 97.468 11.594 95.886 11.594ZM105.93 9.214V12.882C105.356 12.07 104.488 11.594 103.424 11.594C101.506 11.594 100.106 13.162 100.106 15.374C100.106 17.6 101.506 19.168 103.424 19.168C104.488 19.168 105.356 18.692 105.93 17.88V19H107.638V9.214H105.93ZM103.886 17.712C102.668 17.712 101.8 16.732 101.8 15.374C101.8 14.016 102.668 13.05 103.886 13.05C105.09 13.05 105.93 14.016 105.93 15.374C105.93 16.732 105.09 17.712 103.886 17.712ZM118.02 15.136H120.414V16.886C119.812 17.32 119.028 17.572 118.3 17.572C116.508 17.572 114.996 16.032 114.996 14.184C114.996 12.35 116.508 10.81 118.3 10.81C119.238 10.81 120.274 11.23 120.876 11.93L122.122 10.768C121.198 9.802 119.7 9.214 118.3 9.214C115.542 9.214 113.218 11.482 113.218 14.184C113.218 16.886 115.542 19.168 118.3 19.168C119.7 19.168 121.198 18.566 122.122 17.6V13.708H118.02V15.136ZM125.68 13.162V11.762H123.972V19H125.68V15.346C125.68 13.974 126.716 13.05 128.27 13.05V11.594C127.08 11.594 126.142 12.196 125.68 13.162ZM132.686 11.594C131.776 11.594 130.824 11.846 129.802 12.35L130.39 13.54C131.006 13.232 131.664 12.994 132.35 12.994C133.666 12.994 134.128 13.806 134.128 14.646V14.842C133.47 14.59 132.756 14.45 132.098 14.45C130.474 14.45 129.144 15.43 129.144 16.858C129.144 18.258 130.306 19.168 131.846 19.168C132.686 19.168 133.596 18.804 134.128 18.132V19H135.794V14.646C135.794 12.812 134.604 11.594 132.686 11.594ZM132.224 17.922C131.412 17.922 130.81 17.488 130.81 16.802C130.81 16.116 131.496 15.64 132.35 15.64C132.994 15.64 133.596 15.738 134.128 15.92V16.732C133.932 17.502 133.05 17.922 132.224 17.922ZM141.591 11.594C140.639 11.594 139.799 12.056 139.351 12.728V11.762H137.643V19H139.351V14.422C139.463 13.652 140.205 13.05 141.101 13.05C141.997 13.05 142.627 13.75 142.627 14.73V19H144.279V14.394C144.279 12.756 143.173 11.594 141.591 11.594ZM149.745 17.446C149.591 17.6 149.325 17.712 149.031 17.712C148.625 17.712 148.317 17.362 148.317 16.872V13.176H149.955V11.762H148.317V9.774H146.651V11.762H145.601V13.176H146.651V17.082C146.651 18.3 147.491 19.168 148.695 19.168C149.241 19.168 149.829 18.944 150.235 18.594L149.745 17.446ZM154.235 19.168C155.929 19.168 157.077 18.272 157.077 16.886C157.077 15.374 155.761 14.954 154.543 14.618C153.437 14.296 153.059 14.156 153.059 13.694C153.059 13.288 153.521 13.05 154.123 13.05C154.753 13.05 155.495 13.274 156.181 13.708L156.895 12.462C156.111 11.944 155.117 11.594 154.123 11.594C152.513 11.594 151.393 12.518 151.393 13.876C151.407 15.164 152.401 15.612 153.969 16.018C154.795 16.242 155.425 16.424 155.425 16.984C155.425 17.432 154.949 17.726 154.263 17.726C153.353 17.726 152.541 17.39 151.841 16.886L151.071 18.076C151.939 18.776 153.129 19.168 154.235 19.168Z" fill="#232427"/>
</svg>
