<svg width="65" height="20" viewBox="0 0 65 20" fill="none" xmlns="http://www.w3.org/2000/svg">
<g clip-path="url(#clip0_2_109)">
<path d="M59.3977 0.000244141L45.5859 19.8217H49.8265L63.71 0.000244141H59.3977Z" fill="#232427"/>
<path d="M50.2683 0.000244141L54.3322 5.84095L52.2119 9.02679L45.9395 0.000244141H50.2683Z" fill="#232427"/>
<path d="M59.8083 19.8231L55.3027 13.363L57.423 10.2656L64.0488 19.8231H59.8083Z" fill="#232427"/>
<path fill-rule="evenodd" clip-rule="evenodd" d="M40.6392 0.000244141H44.3497V19.8217H40.6392V19.0813C39.5676 19.6671 38.3373 20.0002 37.0289 20.0002C32.8751 20.0002 29.5078 16.6424 29.5078 12.5002C29.5078 8.3581 32.8751 5.00024 37.0289 5.00024C38.3373 5.00024 39.5676 5.33336 40.6392 5.91916V0.000244141ZM36.9893 16.7085C39.3419 16.7085 41.2491 14.8067 41.2491 12.4607C41.2491 10.1148 39.3419 8.21295 36.9893 8.21295C34.6367 8.21295 32.7296 10.1148 32.7296 12.4607C32.7296 14.8067 34.6367 16.7085 36.9893 16.7085Z" fill="#232427"/>
<path d="M29.8756 0.000244141L16.0781 19.8217H20.4036L34.1878 0.000244141H29.8756Z" fill="#232427"/>
<path d="M20.4079 0.000244141L24.7368 6.01794L22.3515 9.38077L15.9023 0.000244141H20.4079Z" fill="#232427"/>
<path fill-rule="evenodd" clip-rule="evenodd" d="M11.1314 0.000244141H14.8418V19.8217H11.1314V19.0813C10.0597 19.6671 8.82946 20.0002 7.52115 20.0002C3.36733 20.0002 0 16.6424 0 12.5002C0 8.3581 3.36733 5.00024 7.52115 5.00024C8.82946 5.00024 10.0597 5.33336 11.1314 5.91916V0.000244141ZM7.48154 16.7085C9.83415 16.7085 11.7413 14.8067 11.7413 12.4607C11.7413 10.1148 9.83415 8.21295 7.48154 8.21295C5.12893 8.21295 3.22177 10.1148 3.22177 12.4607C3.22177 14.8067 5.12893 16.7085 7.48154 16.7085Z" fill="#232427"/>
</g>
<defs>
<clipPath id="clip0_2_109">
<rect width="64.138" height="20" fill="white" transform="translate(0 0.000244141)"/>
</clipPath>
</defs>
</svg>
