<svg width="12" height="12" viewBox="0 0 12 12" fill="none" xmlns="http://www.w3.org/2000/svg">
<path d="M12 2.65415C11.5486 2.85103 11.0712 2.98187 10.5825 3.04265C11.0975 2.73712 11.4826 2.25332 11.6648 1.6829C11.1825 1.9689 10.6549 2.17031 10.1047 2.2784C9.76743 1.91823 9.32959 1.66784 8.84812 1.55975C8.36664 1.45165 7.86379 1.49086 7.40488 1.67227C6.94598 1.85368 6.55224 2.16891 6.27482 2.577C5.9974 2.9851 5.84912 3.46719 5.84925 3.96065C5.84925 4.15565 5.86575 4.34315 5.90625 4.52165C4.92756 4.47367 3.97002 4.21966 3.09623 3.77624C2.22243 3.33282 1.45207 2.70996 0.8355 1.9484C0.519614 2.48979 0.421957 3.13123 0.562412 3.7421C0.702868 4.35297 1.07088 4.88734 1.5915 5.2364C1.20207 5.22596 0.820855 5.12204 0.48 4.9334V4.9604C0.480652 5.52847 0.676999 6.07898 1.03599 6.51925C1.39498 6.95951 1.89469 7.26266 2.451 7.37765C2.24054 7.43312 2.02364 7.46036 1.806 7.45865C1.64969 7.46143 1.49354 7.44735 1.34025 7.41665C1.49921 7.90492 1.80562 8.33191 2.2173 8.63882C2.62897 8.94573 3.12567 9.11747 3.639 9.1304C2.7682 9.81143 1.69423 10.1809 0.58875 10.1797C0.387 10.1797 0.1935 10.1707 0 10.1459C1.12491 10.8708 2.43576 11.2543 3.774 11.2499C8.301 11.2499 10.776 7.4999 10.776 4.2494C10.776 4.14065 10.7723 4.03565 10.767 3.9314C11.2522 3.58414 11.6701 3.15131 12 2.65415Z" fill="#5E5C6C"/>
</svg>
